<?xml version="1.0" ?><!DOCTYPE svg  PUBLIC '-//W3C//DTD SVG 1.1//EN'  'http://www.w3.org/Graphics/SVG/1.1/DTD/svg11.dtd'><svg height="135px" id="Layer_1" style="enable-background:new 0 0 135 135;" version="1.1" viewBox="0 0 135 135" width="135px" xml:space="preserve" xmlns="http://www.w3.org/2000/svg" xmlns:xlink="http://www.w3.org/1999/xlink"><style type="text/css">
<![CDATA[
	.st0{fill:#465652;}
	.st1{fill:#AAB9BA;}
	.st2{fill:#47C67B;}
	.st3{fill:#AAC8D1;}
	.st4{fill:none;stroke:#E83834;stroke-width:6;stroke-linecap:round;stroke-linejoin:round;stroke-miterlimit:10;}
	.st5{fill:#7BC67B;}
	.st6{fill:#7BC7FF;}
	.st7{fill:#7C34C1;}
	.st8{fill:#7C8D96;}
	.st9{fill:#AD2707;}
	.st10{fill:#ADB8BC;}
	.st11{fill:#107510;}
	.st12{fill:#7FE5D8;}
	.st13{fill:#AF4AD1;}
	.st14{fill:#E02B7E;}
	.st15{fill:#E04038;}
	.st16{fill:#AFD7DD;}
	.st17{fill:#E0A010;}
	.st18{fill:#E0D5A4;}
	.st19{fill:#12B2B2;}
	.st20{fill:#12D66B;}
	.st21{fill:#E1A9FF;}
	.st22{fill:#1362A8;}
	.st23{fill:#E2378D;}
	.st24{fill:#E29C37;}
	.st25{fill:#E2B90E;}
	.st26{fill:#E2BF91;}
	.st27{fill:#E2CBAA;}
	.st28{fill:#14A594;}
	.st29{fill:#E4E9ED;}
	.st30{fill:#4A5D60;}
	.st31{fill:#E5B076;}
	.st32{fill:#E5B1C4;}
	.st33{fill:#E5E4C3;}
	.st34{fill:#4B6466;}
	.st35{fill:#E6FF2E;}
	.st36{fill:#18AA67;}
	.st37{fill:#E86207;}
	.st38{fill:#E8A113;}
	.st39{fill:#E8B5A6;}
	.st40{fill:#E8E8ED;}
	.st41{fill:#4E5154;}
	.st42{fill:#E9F1F4;}
	.st43{fill:#4F4B48;}
	.st44{fill:#4F74E8;}
	.st45{fill:#808E93;}
	.st46{fill:#80949B;}
	.st47{fill:#80EDAC;}
	.st48{fill:#B122E0;}
	.st49{fill:#B2C4CC;}
	.st50{fill:#83D839;}
	.st51{fill:#B3C6C6;}
	.st52{fill:none;stroke:#33363A;stroke-width:3;stroke-linecap:round;stroke-linejoin:round;stroke-miterlimit:10;}
	.st53{fill:#1A8E1C;}
	.st54{fill:#1A93D6;}
	.st55{fill:#B50B0B;}
	.st56{fill:#1AD88F;}
	.st57{fill:#B5DAF4;}
	.st58{fill:#EA7B1F;}
	.st59{fill:#EA81BD;}
	.st60{fill:#87B8D6;}
	.st61{fill:#87C3F4;}
	.st62{fill:#EAC79D;}
	.st63{fill:#EADF11;}
	.st64{fill:#EAE4C5;}
	.st65{fill:#B78094;}
	.st66{fill:#8844D8;}
	.st67{fill:#EBF4F7;}
	.st68{fill:#893015;}
	.st69{fill:#89410B;}
	.st70{fill:#899BA3;}
	.st71{fill:#EDE3B9;}
	.st72{enable-background:new    ;}
	.st73{fill:#50FF9F;}
	.st74{fill:#EEDCF4;}
	.st75{fill:#EFA37D;}
	.st76{fill:#EFA3CC;}
	.st77{fill:#EFC99A;}
	.st78{fill:#54AF79;}
	.st79{fill:#BA503A;}
	.st80{fill:#BA8663;}
	.st81{fill:#8B4FE0;}
	.st82{fill:#58ED9B;}
	.st83{fill:#BC7DFF;}
	.st84{fill:#8D9AA3;}
	.st85{fill:#BCCAD3;}
	.st86{fill:#8DE4FF;}
	.st87{fill:#20B518;}
	.st88{fill:#BF44F2;}
	.st89{fill:#21CEA1;}
	.st90{fill:#BFDAE0;}
	.st91{fill:#F0FBFC;}
	.st92{fill:#F2D9A7;}
	.st93{fill:#F2EAC9;}
	.st94{fill:#24D1AF;}
	.st95{fill:#25931C;}
	.st96{fill:#F4C4B3;}
	.st97{fill:#F4D3A2;}
	.st98{fill:#F4D647;}
	.st99{fill:#F4D7B8;}
	.st100{fill:#F4EC8E;}
	.st101{fill:#5B524D;}
	.st102{fill:#F77819;}
	.st103{fill:#F79AE1;}
	.st104{fill:#5E707A;}
	.st105{fill:#F93585;}
	.st106{fill:#F95D5D;}
	.st107{fill:#F9C19B;}
	.st108{fill:#F9CB58;}
	.st109{fill:#F9D2B2;}
	.st110{fill:#F9F07D;}
	.st111{fill:#F9F1D2;}
	.st112{fill:#F9F4B7;}
	.st113{fill:#F9F9E4;}
	.st114{fill:#5F1DAA;}
	.st115{fill:#5F9AD6;}
	.st116{fill:#C0C0C4;}
	.st117{fill:#91EA57;}
	.st118{fill:#C12727;}
	.st119{fill:#C191A0;}
	.st120{fill:#923BB7;}
	.st121{fill:#93A0A3;}
	.st122{fill:#93F9EA;}
	.st123{fill:#93FF5A;}
	.st124{fill:#C4833D;}
	.st125{fill:#95A2A5;}
	.st126{fill:#965514;}
	.st127{fill:#96562C;}
	.st128{fill:#2AF42F;}
	.st129{fill:#C5D7DD;}
	.st130{fill:#C68510;}
	.st131{fill:#C6A86D;}
	.st132{fill:#C6BB8D;}
	.st133{fill:#2C9DCE;}
	.st134{fill:#FBFCF2;}
	.st135{fill:#FC70B0;}
	.st136{fill:#FCE6C8;}
	.st137{fill:#FCF7E3;}
	.st138{fill:#C90D6B;}
	.st139{fill:#FDFEFF;}
	.st140{fill:#FDFFDC;}
	.st141{fill:#FF1A1A;}
	.st142{fill:#FF5252;}
	.st143{fill:#FF5B00;}
	.st144{fill:#FF6155;}
	.st145{fill:#FF630D;}
	.st146{fill:#FF6666;}
	.st147{fill:#FF7676;}
	.st148{fill:#FF7900;}
	.st149{fill:#FF860D;}
	.st150{fill:#FF8B00;}
	.st151{fill:#FF8F8F;}
	.st152{fill:#FF900B;}
	.st153{fill:#FF908A;}
	.st154{fill:#FF960B;}
	.st155{fill:#FF9C0D;}
	.st156{fill:#FFA9D4;}
	.st157{fill:#FFAA00;}
	.st158{fill:#FFAD40;}
	.st159{fill:#FFAF10;}
	.st160{fill:#FFB000;}
	.st161{fill:#FFBE08;}
	.st162{fill:#FFBF31;}
	.st163{fill:#FFC200;}
	.st164{fill:#FFCAE8;}
	.st165{fill:#FFCCF5;}
	.st166{fill:#FFD00B;}
	.st167{fill:#FFD039;}
	.st168{fill:#FFD400;}
	.st169{fill:#FFD833;}
	.st170{fill:#FFDB80;}
	.st171{fill:#FFDDD2;}
	.st172{fill:#FFE6D4;}
	.st173{fill:#FFE6EB;}
	.st174{fill:#FFE98D;}
	.st175{fill:#FFECD2;}
	.st176{fill:#FFF1D9;}
	.st177{fill:#FFF24D;}
	.st178{fill:#FFF3C2;}
	.st179{fill:#FFF4C7;}
	.st180{fill:#FFF800;}
	.st181{fill:#FFF80D;}
	.st182{fill:#FFF9DE;}
	.st183{fill:#FFFBD7;}
	.st184{fill:#FFFBEB;}
	.st185{fill:#FFFCC0;}
	.st186{fill:#FFFCDC;}
	.st187{fill:#FFFFFA;}
	.st188{fill:#FFFFFF;}
	.st189{fill:#63797F;}
	.st190{fill:#65E529;}
	.st191{fill:#66310E;}
	.st192{fill:#663C17;}
	.st193{fill:#9A5AE5;}
	.st194{fill:#CA30EF;}
	.st195{fill:#6892FC;}
	.st196{fill:#9CFFC4;}
	.st197{fill:#CC4306;}
	.st198{fill:#CC549E;}
	.st199{fill:#9E3256;}
	.st200{fill:#CDFFBB;}
	.st201{fill:#CE86AF;}
	.st202{fill:#CED9DD;}
	
		.st203{fill:none;stroke:#33363A;stroke-width:3;stroke-linecap:round;stroke-linejoin:round;stroke-miterlimit:10;stroke-dasharray:6;}
	.st204{fill:#CFE1E2;}
	.st205{fill:#33363A;}
	.st206{fill:#34C166;}
	.st207{fill:#364B5B;}
	.st208{fill:#3662CE;}
	.st209{fill:#36C6FF;}
	.st210{fill:#6ADB9A;}
	.st211{fill:#6D5C4D;}
	.st212{fill:#6EBDF9;}
	.st213{fill:#0031FF;}
	.st214{fill:#0062FF;}
	.st215{fill:#0068FF;}
	.st216{fill:#0086FF;}
	.st217{fill:#009BE8;}
	.st218{fill:#00AAFF;}
	.st219{fill:#D271FF;}
	.st220{fill:#D363A9;}
	.st221{fill:#D3964C;}
	.st222{fill:#D3DFE2;}
	.st223{fill:#D3E0E2;}
	.st224{fill:#D3EFF4;}
	.st225{fill:#063B66;}
	.st226{fill:#D60909;}
	.st227{fill:#D61D1D;}
	.st228{fill:#D7F0FF;}
	.st229{fill:#09B285;}
	.st230{fill:#D8D593;}
	.st231{fill:#D8E2EA;}
	.st232{fill:#D8E5EA;}
	.st233{fill:#3E5054;}
	.st234{fill:#D988FF;}
	.st235{fill:#D9E7E8;}
	.st236{fill:#702252;}
	.st237{fill:#70D3E0;}
	.st238{fill:#A02FF2;}
	.st239{fill:#A2F255;}
	.st240{fill:#A35616;}
	.st241{fill:#A3CCCC;}
	.st242{fill:#0A6ADD;}
	.st243{fill:#A5145D;}
	.st244{fill:#A57555;}
	.st245{fill:#77D6FC;}
	.st246{fill:#7815CE;}
	.st247{fill:#A7BBC1;}
	.st248{fill:#DBD279;}
	.st249{fill:#0D5C9E;}
	.st250{fill:#A83C11;}
	.st251{fill:#A8633D;}
	.st252{fill:#A8A3E5;}
	.st253{fill:#DCE6EA;}
	.st254{fill:#DCE7EA;}
	.st255{fill:#A962E8;}
	.st256{fill:#DD2466;}
	.st257{fill:#DDC38A;}
	.st258{fill:#DDD2B1;}
	.st259{fill:#DFE7E8;}
	.st260{fill:#42B1E8;}
	.st261{fill:#436377;}
	.st262{fill:#43B530;}
]]>
</style><g><g><g><g><g><polygon class="st156" points="38.622,21.096 66.374,5.074 94.126,21.096 94.126,53.146 66.374,69.166 38.622,53.146      "/></g><g><polyline class="st135" points="38.622,21.096 66.374,5.074 94.126,21.096 94.126,53.146 66.374,69.166      "/></g><g><polygon class="st105" points="66.374,5.074 66.374,69.166 66.374,69.166 94.126,53.146 94.126,21.096 66.374,5.074      "/></g><g><polyline class="st256" points="94.126,21.096 66.374,5.074 66.374,5.074 66.374,69.166 66.374,69.166      "/></g><g><g><g><polygon class="st135" points="38.622,21.096 38.622,21.099 66.374,37.12 94.126,21.099 94.126,21.096 66.374,5.074                 "/></g><g><polyline class="st105" points="38.622,21.096 38.622,21.099 66.374,37.12 94.126,21.099 94.126,21.096        "/></g><g><path class="st205" d="M66.374,70.666c-0.259,0-0.518-0.067-0.75-0.201L37.872,54.445c-0.464-0.268-0.75-0.763-0.75-1.299         v-32.05c0-0.536,0.286-1.031,0.75-1.299L65.624,3.775c0.465-0.269,1.035-0.269,1.5,0l27.752,16.021         c0.464,0.268,0.75,0.763,0.75,1.299v32.05c0,0.536-0.286,1.031-0.75,1.299L67.124,70.465         C66.892,70.599,66.633,70.666,66.374,70.666z M40.122,52.279l26.252,15.155l26.252-15.155V21.962L66.374,6.806L40.122,21.962         V52.279z"/></g><g><g><path class="st205" d="M66.374,38.62c-0.259,0-0.518-0.067-0.75-0.201L37.872,22.397c-0.718-0.414-0.963-1.332-0.549-2.049          c0.414-0.718,1.333-0.963,2.049-0.549l27.002,15.588L93.376,19.8c0.716-0.414,1.635-0.169,2.049,0.549          c0.414,0.717,0.169,1.635-0.549,2.049L67.124,38.419C66.892,38.553,66.633,38.62,66.374,38.62z"/></g><g><path class="st205" d="M66.374,69.802c-0.828,0-1.5-0.671-1.5-1.5V37.12c0-0.829,0.672-1.5,1.5-1.5s1.5,0.671,1.5,1.5          v31.182C67.874,69.13,67.202,69.802,66.374,69.802z"/></g></g></g></g></g></g><g><polygon class="st135" points="47.525,94.427 47.525,94.429 66.374,105.311 85.224,94.429 85.224,94.427 66.374,83.546    "/></g><g><polyline class="st105" points="66.374,105.311 85.224,94.429 85.224,94.427 66.374,83.546    "/></g><g><path class="st205" d="M66.374,106.811c-0.259,0-0.518-0.067-0.75-0.201L46.775,95.728c-0.464-0.268-0.75-0.763-0.75-1.299     c0-0.536,0.286-1.031,0.75-1.299l18.849-10.883c0.465-0.269,1.035-0.268,1.5,0l18.85,10.881c0.464,0.268,0.75,0.763,0.75,1.299     c0,0.536-0.286,1.031-0.75,1.299l-18.85,10.884C66.892,106.744,66.633,106.811,66.374,106.811z M50.525,94.427l15.849,9.152     l15.85-9.15l-15.85-9.151L50.525,94.427z"/></g><g><g><circle class="st156" cx="66.375" cy="124.767" r="5.16"/></g><g><path class="st135" d="M66.374,119.606c2.85,0,5.16,2.311,5.16,5.16c0,2.851-2.311,5.159-5.16,5.159"/></g><g><path class="st205" d="M66.374,131.426c-3.672,0-6.659-2.987-6.659-6.659c0-3.672,2.987-6.66,6.659-6.66      c3.673,0,6.66,2.988,6.66,6.66C73.034,128.438,70.047,131.426,66.374,131.426z M66.374,121.106c-2.018,0-3.659,1.642-3.659,3.66      c0,2.018,1.642,3.659,3.659,3.659c2.019,0,3.66-1.642,3.66-3.659C70.034,122.749,68.393,121.106,66.374,121.106z"/></g></g><g><g><path class="st205" d="M66.374,112.691c-0.828,0-1.5-0.671-1.5-1.5v-5.881c0-0.829,0.672-1.5,1.5-1.5s1.5,0.671,1.5,1.5v5.881      C67.874,112.02,67.202,112.691,66.374,112.691z"/></g><g><path class="st205" d="M66.37,116.98c-0.391,0-0.78-0.16-1.061-0.44c-0.279-0.28-0.439-0.67-0.439-1.06      c0-0.4,0.16-0.79,0.439-1.07c0.57-0.55,1.57-0.55,2.13,0c0.28,0.29,0.44,0.67,0.44,1.07c0,0.39-0.16,0.77-0.44,1.06      C67.149,116.82,66.77,116.98,66.37,116.98z"/></g></g><g><g><path class="st205" d="M66.374,75.683c-0.828,0-1.5-0.671-1.5-1.5v-5.881c0-0.829,0.672-1.5,1.5-1.5s1.5,0.671,1.5,1.5v5.881      C67.874,75.011,67.202,75.683,66.374,75.683z"/></g><g><path class="st205" d="M66.37,79.97c-0.391,0-0.78-0.16-1.061-0.44c-0.279-0.28-0.439-0.67-0.439-1.06      c0-0.4,0.16-0.78,0.439-1.06c0.57-0.56,1.57-0.56,2.13,0c0.28,0.28,0.44,0.66,0.44,1.06c0,0.39-0.16,0.78-0.44,1.06      C67.149,79.81,66.77,79.97,66.37,79.97z"/></g></g></g><g><g><path class="st135" d="M116.123,73.851c-2.825,0-5.306,1.586-6.179,3.941c-0.012,0.035-0.028,0.066-0.048,0.096     c-0.02-0.029-0.036-0.061-0.049-0.096c-0.871-2.355-3.353-3.941-6.181-3.941c-3.575,0-6.487,2.564-6.487,5.713     c0,1.146,0.379,2.253,1.105,3.195c0.007,0.006,0.011,0.017,0.011,0.017c0.023,0.026,0.043,0.043,0.061,0.06l11.54,13.65     l11.539-13.65c0.018-0.017,0.038-0.033,0.062-0.06c0,0,0.003-0.011,0.011-0.017c0.727-0.942,1.105-2.049,1.105-3.195     C122.613,76.415,119.701,73.851,116.123,73.851z"/></g><g><path class="st105" d="M109.848,77.792c-0.871-2.355-3.353-3.941-6.181-3.941c-3.575,0-6.487,2.564-6.487,5.713     c0,1.146,0.379,2.253,1.105,3.195c0.007,0.006,0.011,0.017,0.011,0.017c0.023,0.026,0.043,0.043,0.061,0.06l11.54,13.65V77.888     C109.877,77.858,109.86,77.827,109.848,77.792z"/></g><g><path class="st205" d="M109.896,97.985c-0.441,0-0.86-0.194-1.146-0.532L97.253,83.853c-0.031-0.032-0.063-0.064-0.078-0.081     c-0.04-0.045-0.077-0.092-0.11-0.141c-0.906-1.193-1.385-2.599-1.385-4.068c0-3.977,3.583-7.213,7.987-7.213     c2.478,0,4.748,1.02,6.234,2.685c1.493-1.672,3.756-2.685,6.222-2.685c4.406,0,7.99,3.236,7.99,7.213     c0,1.469-0.479,2.875-1.385,4.068c-0.033,0.049-0.07,0.096-0.11,0.141c-0.02,0.022-0.053,0.057-0.086,0.089l-11.49,13.592     C110.757,97.791,110.338,97.985,109.896,97.985z M99.442,81.803c0.021,0.02,0.032,0.031,0.06,0.063l10.395,12.295l10.394-12.295     c0.023-0.027,0.047-0.054,0.072-0.079c0.491-0.661,0.751-1.429,0.751-2.224c0-2.323-2.238-4.213-4.99-4.213     c-2.197,0-4.115,1.19-4.772,2.963c-0.036,0.111-0.111,0.264-0.206,0.406c-0.557,0.835-1.939,0.835-2.496,0     c-0.088-0.131-0.159-0.272-0.212-0.418c-0.65-1.761-2.569-2.951-4.77-2.951c-2.75,0-4.987,1.89-4.987,4.213     C98.68,80.365,98.943,81.139,99.442,81.803z"/></g></g><g><g><path class="st135" d="M31.331,95.127c-2.826,0-5.307,1.586-6.18,3.941c-0.012,0.035-0.028,0.066-0.048,0.096     c-0.02-0.029-0.036-0.061-0.049-0.096c-0.871-2.355-3.353-3.941-6.181-3.941c-3.575,0-6.487,2.564-6.487,5.714     c0,1.146,0.379,2.252,1.105,3.194c0.007,0.006,0.011,0.017,0.011,0.017c0.023,0.026,0.043,0.043,0.061,0.06l11.54,13.65     l11.539-13.65c0.019-0.017,0.038-0.033,0.062-0.06c0,0,0.004-0.011,0.011-0.017c0.727-0.942,1.105-2.049,1.105-3.194     C37.82,97.691,34.908,95.127,31.331,95.127z"/></g><g><path class="st105" d="M25.055,99.068c-0.871-2.355-3.353-3.941-6.181-3.941c-3.575,0-6.487,2.564-6.487,5.714     c0,1.146,0.379,2.252,1.105,3.194c0.007,0.006,0.011,0.017,0.011,0.017c0.023,0.026,0.043,0.043,0.061,0.06l11.54,13.65V99.164     C25.084,99.135,25.067,99.104,25.055,99.068z"/></g><g><path class="st205" d="M25.104,119.262c-0.441,0-0.86-0.194-1.146-0.532L12.46,105.129c-0.031-0.032-0.063-0.064-0.078-0.081     c-0.04-0.045-0.077-0.092-0.11-0.141c-0.906-1.193-1.385-2.599-1.385-4.067c0-3.978,3.583-7.214,7.987-7.214     c2.478,0,4.748,1.02,6.234,2.685c1.493-1.672,3.756-2.685,6.223-2.685c4.405,0,7.989,3.236,7.989,7.214     c0,1.468-0.479,2.874-1.385,4.067c-0.033,0.049-0.07,0.096-0.11,0.141c-0.019,0.021-0.052,0.055-0.085,0.088L26.249,118.73     C25.964,119.067,25.545,119.262,25.104,119.262z M14.649,103.08c0.021,0.02,0.032,0.031,0.06,0.063l10.395,12.295l10.394-12.295     c0.023-0.027,0.047-0.054,0.072-0.079c0.491-0.661,0.751-1.428,0.751-2.223c0-2.324-2.238-4.214-4.989-4.214     c-2.198,0-4.116,1.19-4.773,2.963c-0.036,0.111-0.111,0.264-0.206,0.406c-0.557,0.835-1.939,0.835-2.496,0     c-0.088-0.131-0.159-0.272-0.212-0.418c-0.65-1.761-2.569-2.951-4.77-2.951c-2.75,0-4.987,1.89-4.987,4.214     C13.887,101.642,14.15,102.415,14.649,103.08z"/></g></g><g><g><path class="st135" d="M36.795,67.198c-1.744,0-3.275,0.979-3.813,2.433c-0.008,0.021-0.018,0.041-0.03,0.059     c-0.012-0.018-0.021-0.037-0.029-0.059c-0.538-1.454-2.069-2.433-3.814-2.433c-2.207,0-4.004,1.583-4.004,3.525     c0,0.708,0.234,1.391,0.682,1.972c0.005,0.004,0.007,0.011,0.007,0.011c0.015,0.017,0.027,0.026,0.038,0.037l7.121,8.424     l7.121-8.424c0.012-0.011,0.024-0.021,0.038-0.037c0,0,0.003-0.007,0.007-0.011c0.448-0.581,0.683-1.264,0.683-1.972     C40.8,68.781,39.003,67.198,36.795,67.198z"/></g><g><path class="st105" d="M32.922,69.631c-0.538-1.454-2.069-2.433-3.814-2.433c-2.207,0-4.004,1.583-4.004,3.525     c0,0.708,0.234,1.391,0.682,1.972c0.005,0.004,0.007,0.011,0.007,0.011c0.015,0.017,0.027,0.026,0.038,0.037l7.121,8.424V69.689     C32.939,69.672,32.93,69.652,32.922,69.631z"/></g><g><path class="st205" d="M32.951,82.667c-0.441,0-0.86-0.194-1.146-0.532l-7.083-8.378c-0.021-0.022-0.044-0.045-0.056-0.058     c-0.036-0.042-0.07-0.085-0.102-0.13c-0.63-0.835-0.962-1.818-0.962-2.845c0-2.771,2.469-5.025,5.504-5.025     c1.472,0,2.839,0.53,3.845,1.421c1.006-0.892,2.372-1.421,3.843-1.421c3.035,0,5.505,2.254,5.505,5.025     c0,1.028-0.333,2.011-0.963,2.846c-0.021,0.031-0.045,0.061-0.068,0.09c-0.025,0.031-0.06,0.068-0.095,0.104l-7.077,8.372     C33.812,82.473,33.393,82.667,32.951,82.667z M26.938,71.732c0.013,0.015,0.025,0.029,0.037,0.042l5.976,7.069l5.976-7.069     c0.013-0.015,0.026-0.03,0.039-0.045c0.219-0.303,0.334-0.649,0.334-1.006c0-1.098-1.147-2.025-2.505-2.025     c-1.118,0-2.085,0.584-2.406,1.453c-0.048,0.127-0.142,0.307-0.222,0.417c-0.288,0.398-0.738,0.645-1.244,0.621     c-0.491-0.009-0.947-0.258-1.22-0.667c-0.066-0.1-0.15-0.265-0.19-0.378c-0.319-0.861-1.287-1.445-2.405-1.445     c-1.357,0-2.504,0.928-2.504,2.025C26.604,71.082,26.719,71.429,26.938,71.732z"/></g></g><g><g><path class="st135" d="M105.817,105.311c-1.744,0-3.274,0.979-3.813,2.433c-0.008,0.021-0.018,0.041-0.029,0.059     c-0.012-0.018-0.022-0.037-0.03-0.059c-0.537-1.454-2.069-2.433-3.814-2.433c-2.206,0-4.004,1.583-4.004,3.525     c0,0.708,0.234,1.391,0.683,1.972c0.004,0.004,0.007,0.011,0.007,0.011c0.015,0.017,0.026,0.026,0.037,0.037l7.122,8.424     l7.121-8.424c0.011-0.011,0.023-0.021,0.038-0.037c0,0,0.002-0.007,0.007-0.011c0.448-0.581,0.682-1.264,0.682-1.972     C109.822,106.894,108.025,105.311,105.817,105.311z"/></g><g><path class="st105" d="M101.944,107.743c-0.537-1.454-2.069-2.433-3.814-2.433c-2.206,0-4.004,1.583-4.004,3.525     c0,0.708,0.234,1.391,0.683,1.972c0.004,0.004,0.007,0.011,0.007,0.011c0.015,0.017,0.026,0.026,0.037,0.037l7.122,8.424v-11.478     C101.963,107.784,101.952,107.765,101.944,107.743z"/></g><g><path class="st205" d="M101.975,120.779c-0.441,0-0.86-0.194-1.146-0.532l-7.087-8.382c-0.021-0.021-0.041-0.042-0.052-0.054     c-0.036-0.041-0.07-0.084-0.102-0.129c-0.63-0.835-0.963-1.818-0.963-2.846c0-2.771,2.469-5.025,5.504-5.025     c1.473,0,2.84,0.53,3.846,1.421c1.006-0.892,2.372-1.421,3.842-1.421c3.035,0,5.505,2.254,5.505,5.025     c0,1.029-0.332,2.012-0.962,2.846c-0.031,0.044-0.065,0.087-0.102,0.129c-0.017,0.019-0.039,0.042-0.062,0.065l-7.077,8.371     C102.835,120.585,102.416,120.779,101.975,120.779z M95.965,109.849c0.012,0.013,0.023,0.026,0.033,0.038l5.977,7.069     l5.976-7.069c0.013-0.016,0.026-0.03,0.04-0.045c0.221-0.305,0.332-0.643,0.332-1.006c0-1.098-1.147-2.025-2.505-2.025     c-1.117,0-2.085,0.584-2.407,1.454c-0.04,0.109-0.123,0.272-0.188,0.369c-0.557,0.835-1.939,0.835-2.496,0     c-0.066-0.1-0.151-0.266-0.192-0.378c-0.317-0.861-1.285-1.445-2.404-1.445c-1.357,0-2.504,0.928-2.504,2.025     C95.626,109.196,95.743,109.545,95.965,109.849z"/></g></g></g></svg>