<?xml version="1.0" encoding="UTF-8" standalone="no"?><!-- Generator: Gravit.io --><svg xmlns="http://www.w3.org/2000/svg" xmlns:xlink="http://www.w3.org/1999/xlink" style="isolation:isolate" viewBox="0 0 512 512" width="512pt" height="512pt"><defs><clipPath id="_clipPath_Sm5e6cW96U22vKQVcSHWFzIJUySAeSsQ"><rect width="512" height="512"/></clipPath></defs><g clip-path="url(#_clipPath_Sm5e6cW96U22vKQVcSHWFzIJUySAeSsQ)"><path d=" M 100.363 302.16 L 65.135 302.16 L 65.135 302.16 Q 62.099 292.138 62.099 285.761 L 62.099 285.761 L 62.099 285.761 Q 62.099 279.384 64.528 272.399 L 64.528 272.399 L 64.528 272.399 Q 66.958 265.414 76.22 256.152 L 76.22 256.152 L 76.22 256.152 Q 85.482 246.89 95.352 240.512 L 95.352 240.512 L 95.352 240.512 Q 105.222 234.135 112.814 224.721 L 112.814 224.721 L 112.814 224.721 Q 120.406 215.307 120.406 204.678 L 120.406 204.678 L 120.406 204.678 Q 120.406 181.901 89.43 181.901 L 89.43 181.901 L 89.43 181.901 Q 76.675 181.901 65.135 186.76 L 65.135 186.76 L 65.135 186.76 Q 64.224 202.552 59.365 211.966 L 59.365 211.966 L 30.516 211.966 L 30.516 211.966 Q 26.568 204.07 24.442 191.771 L 24.442 191.771 L 24.442 191.771 Q 22.316 179.472 22.316 174.309 L 22.316 174.309 L 22.316 174.309 Q 22.316 169.147 22.316 167.325 L 22.316 167.325 L 22.316 167.325 Q 35.375 158.518 54.355 153.659 L 54.355 153.659 L 54.355 153.659 Q 73.335 148.8 90.948 148.8 L 90.948 148.8 L 90.948 148.8 Q 124.657 148.8 146.219 164.136 L 146.219 164.136 L 146.219 164.136 Q 167.78 179.472 167.78 208.018 L 167.78 208.018 L 167.78 208.018 Q 167.78 220.469 162.466 230.946 L 162.466 230.946 L 162.466 230.946 Q 157.151 241.423 149.407 247.952 L 149.407 247.952 L 149.407 247.952 Q 141.663 254.482 132.705 261.163 L 132.705 261.163 L 132.705 261.163 Q 123.746 267.844 116.154 273.31 L 116.154 273.31 L 116.154 273.31 Q 100.059 284.242 100.059 299.427 L 100.059 299.427 L 100.059 299.427 Q 100.059 300.641 100.363 302.16 L 100.363 302.16 Z  M 81.99 363.2 L 81.99 363.2 L 81.99 363.2 Q 56.632 363.2 56.632 340.272 L 56.632 340.272 L 56.632 340.272 Q 56.632 317.344 81.99 317.344 L 81.99 317.344 L 81.99 317.344 Q 107.347 317.344 107.347 340.272 L 107.347 340.272 L 107.347 340.272 Q 107.347 363.2 81.99 363.2 Z  M 261.314 302.16 L 226.087 302.16 L 226.087 302.16 Q 223.05 292.138 223.05 285.761 L 223.05 285.761 L 223.05 285.761 Q 223.05 279.384 225.48 272.399 L 225.48 272.399 L 225.48 272.399 Q 227.909 265.414 237.172 256.152 L 237.172 256.152 L 237.172 256.152 Q 246.434 246.89 256.304 240.512 L 256.304 240.512 L 256.304 240.512 Q 266.173 234.135 273.765 224.721 L 273.765 224.721 L 273.765 224.721 Q 281.358 215.307 281.358 204.678 L 281.358 204.678 L 281.358 204.678 Q 281.358 181.901 250.382 181.901 L 250.382 181.901 L 250.382 181.901 Q 237.627 181.901 226.087 186.76 L 226.087 186.76 L 226.087 186.76 Q 225.176 202.552 220.317 211.966 L 220.317 211.966 L 191.467 211.966 L 191.467 211.966 Q 187.52 204.07 185.394 191.771 L 185.394 191.771 L 185.394 191.771 Q 183.268 179.472 183.268 174.309 L 183.268 174.309 L 183.268 174.309 Q 183.268 169.147 183.268 167.325 L 183.268 167.325 L 183.268 167.325 Q 196.326 158.518 215.307 153.659 L 215.307 153.659 L 215.307 153.659 Q 234.287 148.8 251.9 148.8 L 251.9 148.8 L 251.9 148.8 Q 285.609 148.8 307.171 164.136 L 307.171 164.136 L 307.171 164.136 Q 328.732 179.472 328.732 208.018 L 328.732 208.018 L 328.732 208.018 Q 328.732 220.469 323.418 230.946 L 323.418 230.946 L 323.418 230.946 Q 318.103 241.423 310.359 247.952 L 310.359 247.952 L 310.359 247.952 Q 302.615 254.482 293.657 261.163 L 293.657 261.163 L 293.657 261.163 Q 284.698 267.844 277.106 273.31 L 277.106 273.31 L 277.106 273.31 Q 261.011 284.242 261.011 299.427 L 261.011 299.427 L 261.011 299.427 Q 261.011 300.641 261.314 302.16 L 261.314 302.16 Z  M 242.942 363.2 L 242.942 363.2 L 242.942 363.2 Q 217.584 363.2 217.584 340.272 L 217.584 340.272 L 217.584 340.272 Q 217.584 317.344 242.942 317.344 L 242.942 317.344 L 242.942 317.344 Q 268.299 317.344 268.299 340.272 L 268.299 340.272 L 268.299 340.272 Q 268.299 363.2 242.942 363.2 Z  M 422.266 302.16 L 387.039 302.16 L 387.039 302.16 Q 384.002 292.138 384.002 285.761 L 384.002 285.761 L 384.002 285.761 Q 384.002 279.384 386.432 272.399 L 386.432 272.399 L 386.432 272.399 Q 388.861 265.414 398.124 256.152 L 398.124 256.152 L 398.124 256.152 Q 407.386 246.89 417.256 240.512 L 417.256 240.512 L 417.256 240.512 Q 427.125 234.135 434.717 224.721 L 434.717 224.721 L 434.717 224.721 Q 442.309 215.307 442.309 204.678 L 442.309 204.678 L 442.309 204.678 Q 442.309 181.901 411.334 181.901 L 411.334 181.901 L 411.334 181.901 Q 398.579 181.901 387.039 186.76 L 387.039 186.76 L 387.039 186.76 Q 386.128 202.552 381.269 211.966 L 381.269 211.966 L 352.419 211.966 L 352.419 211.966 Q 348.471 204.07 346.346 191.771 L 346.346 191.771 L 346.346 191.771 Q 344.22 179.472 344.22 174.309 L 344.22 174.309 L 344.22 174.309 Q 344.22 169.147 344.22 167.325 L 344.22 167.325 L 344.22 167.325 Q 357.278 158.518 376.258 153.659 L 376.258 153.659 L 376.258 153.659 Q 395.239 148.8 412.852 148.8 L 412.852 148.8 L 412.852 148.8 Q 446.561 148.8 468.122 164.136 L 468.122 164.136 L 468.122 164.136 Q 489.684 179.472 489.684 208.018 L 489.684 208.018 L 489.684 208.018 Q 489.684 220.469 484.369 230.946 L 484.369 230.946 L 484.369 230.946 Q 479.055 241.423 471.311 247.952 L 471.311 247.952 L 471.311 247.952 Q 463.567 254.482 454.608 261.163 L 454.608 261.163 L 454.608 261.163 Q 445.65 267.844 438.058 273.31 L 438.058 273.31 L 438.058 273.31 Q 421.963 284.242 421.963 299.427 L 421.963 299.427 L 421.963 299.427 Q 421.963 300.641 422.266 302.16 L 422.266 302.16 Z  M 403.893 363.2 L 403.893 363.2 L 403.893 363.2 Q 378.536 363.2 378.536 340.272 L 378.536 340.272 L 378.536 340.272 Q 378.536 317.344 403.893 317.344 L 403.893 317.344 L 403.893 317.344 Q 429.251 317.344 429.251 340.272 L 429.251 340.272 L 429.251 340.272 Q 429.251 363.2 403.893 363.2 Z " fill="rgb(255,255,255)"/></g></svg>